# xmcd
#
# Track frame offsets:
#	150
#	29972
#	48458
#	63515
#	80834
#	101515
#	120147
#	138014
#	154931
#	172788
#	188345
#	203067
#	217810
#	233401
#	248808
#	263108
#	280549
#
# Disc length: 4294 seconds
#
# Revision: 0
# Processed by: cddbd v1.5.1PL0 Copyright (c) Steve Scherf et al.
# Submitted via: audiograbber 1.83.01
#
DISCID=d910c411
DTITLE=Various Artist - A-1.
DYEAR=1900
DGENRE=
TTITLE0=Snap. - The Power. (Rmx)
TTITLE1=C and C Music Factory. - Gonna Make You Sweat.
TTITLE2=Anastasia. - Paid My Dues.
TTITLE3=Sophie Ellis Bextor. - Murder Of Danceflor.
TTITLE4=unknovn - artist
TTITLE5=Thomas Dante feat. Pras. - Miss California.
TTITLE6=Beats International. - Dub Be Good To Me.
TTITLE7=Suzanne Vega feat DNA. - Tom's Diner.
TTITLE8=Snow. - Informer.
TTITLE9=Bosson. - One In A Million. (Rmx)
TTITLE10=Kylie Minogue. - It's In Your Eyes.
TTITLE11=Shakira. - Wherever Whenever.
TTITLE12=Zucherro. - Bailla Sexy.
TTITLE13=No Doubt. - Hey Baby.
TTITLE14=Pink. - The Party Started.
TTITLE15=Titiyo. - Come Along. (Rmx)
TTITLE16=Whitney Houston. - (Rmx)
EXTD=
EXTT0=
EXTT1=
EXTT2=
EXTT3=
EXTT4=
EXTT5=
EXTT6=
EXTT7=
EXTT8=
EXTT9=
EXTT10=
EXTT11=
EXTT12=
EXTT13=
EXTT14=
EXTT15=
EXTT16=
PLAYORDER=
